<mxfile host="app.diagrams.net" modified="2023-05-21T17:56:28.050Z" agent="Mozilla/5.0 (Windows NT 10.0; Win64; x64) AppleWebKit/537.36 (KHTML, like Gecko) Chrome/113.0.0.0 Safari/537.36" etag="AHyb1wIbQ4EGnklstDiq" version="21.3.2" type="device">
  <diagram name="Страница 1" id="nLJy7SkXTexBMdkXFd4G">
    <mxGraphModel dx="2074" dy="1148" grid="1" gridSize="10" guides="1" tooltips="1" connect="1" arrows="1" fold="1" page="1" pageScale="1" pageWidth="827" pageHeight="1169" math="0" shadow="0">
      <root>
        <mxCell id="0" />
        <mxCell id="1" parent="0" />
        <mxCell id="2H0iqjHM80v5tmrJdCq8-3" style="edgeStyle=orthogonalEdgeStyle;rounded=0;orthogonalLoop=1;jettySize=auto;html=1;entryX=0.5;entryY=0;entryDx=0;entryDy=0;" edge="1" parent="1" source="2H0iqjHM80v5tmrJdCq8-1" target="2H0iqjHM80v5tmrJdCq8-2">
          <mxGeometry relative="1" as="geometry" />
        </mxCell>
        <mxCell id="2H0iqjHM80v5tmrJdCq8-1" value="Начало&lt;br&gt;Array" style="ellipse;whiteSpace=wrap;html=1;" vertex="1" parent="1">
          <mxGeometry x="354" y="10" width="120" height="80" as="geometry" />
        </mxCell>
        <mxCell id="2H0iqjHM80v5tmrJdCq8-5" style="edgeStyle=orthogonalEdgeStyle;rounded=0;orthogonalLoop=1;jettySize=auto;html=1;entryX=0.5;entryY=0;entryDx=0;entryDy=0;" edge="1" parent="1" source="2H0iqjHM80v5tmrJdCq8-2" target="2H0iqjHM80v5tmrJdCq8-4">
          <mxGeometry relative="1" as="geometry" />
        </mxCell>
        <mxCell id="2H0iqjHM80v5tmrJdCq8-2" value="amountOfElements" style="shape=parallelogram;perimeter=parallelogramPerimeter;whiteSpace=wrap;html=1;fixedSize=1;" vertex="1" parent="1">
          <mxGeometry x="354" y="120" width="120" height="60" as="geometry" />
        </mxCell>
        <mxCell id="2H0iqjHM80v5tmrJdCq8-7" style="edgeStyle=orthogonalEdgeStyle;rounded=0;orthogonalLoop=1;jettySize=auto;html=1;entryX=0.5;entryY=0;entryDx=0;entryDy=0;" edge="1" parent="1" source="2H0iqjHM80v5tmrJdCq8-4" target="2H0iqjHM80v5tmrJdCq8-6">
          <mxGeometry relative="1" as="geometry" />
        </mxCell>
        <mxCell id="2H0iqjHM80v5tmrJdCq8-4" value="&lt;div style=&quot;font-size: 14px; line-height: 19px;&quot;&gt;&lt;span style=&quot;background-color: rgb(255, 255, 255);&quot;&gt;this.array = new double[amountOfElements]&lt;/span&gt;&lt;/div&gt;" style="rounded=0;whiteSpace=wrap;html=1;" vertex="1" parent="1">
          <mxGeometry x="354" y="210" width="120" height="60" as="geometry" />
        </mxCell>
        <mxCell id="2H0iqjHM80v5tmrJdCq8-9" style="edgeStyle=orthogonalEdgeStyle;rounded=0;orthogonalLoop=1;jettySize=auto;html=1;entryX=0.5;entryY=0;entryDx=0;entryDy=0;" edge="1" parent="1" source="2H0iqjHM80v5tmrJdCq8-6" target="2H0iqjHM80v5tmrJdCq8-8">
          <mxGeometry relative="1" as="geometry" />
        </mxCell>
        <mxCell id="2H0iqjHM80v5tmrJdCq8-6" value="&lt;div style=&quot;font-size: 14px; line-height: 19px;&quot;&gt;&lt;span style=&quot;background-color: rgb(255, 255, 255);&quot;&gt;getNumbers(scn)&lt;/span&gt;&lt;/div&gt;" style="rounded=0;whiteSpace=wrap;html=1;" vertex="1" parent="1">
          <mxGeometry x="354" y="300" width="120" height="60" as="geometry" />
        </mxCell>
        <mxCell id="2H0iqjHM80v5tmrJdCq8-8" value="Конец" style="ellipse;whiteSpace=wrap;html=1;" vertex="1" parent="1">
          <mxGeometry x="354" y="390" width="120" height="80" as="geometry" />
        </mxCell>
      </root>
    </mxGraphModel>
  </diagram>
</mxfile>
